#!OML:ASF G:\JayActor3\Patient Classification 1\Patient 1\Session 6\male.ASF
:FULLY-SPECIFIED
:DEGREES
4478
root -4.15183 16.5913 -6.12203 543.622 -76.4735 -532.853
lowerback 5.86921 1.03511 -2.14348
upperback 0.887689 1.00706 -4.47028
thorax -2.33537 0.454275 -3.49156
lowerneck 13.5402 -3.23428 -3.11567
upperneck -31.9208 -5.30146 4.58347
head -12.6108 -3.01607 3.16691
rclavicle -3.18055e-015 9.70069e-014
rhumerus -84.2394 29.1556 -114.309
rradius 78.4701
rwrist 18.529
rhand -45.1973 24.713
rfingers 7.12502
rthumb -17.9735 -4.47654
lclavicle -3.18055e-015 9.70069e-014
lhumerus -84.6353 -48.9276 103.036
lradius 103.829
lwrist 12.0038
lhand -11.8754 -15.5629
lfingers 7.12502
lthumb 14.1771 13.9333
rfemur -7.82566 -8.00899 17.3138
rtibia 25.0624
rfoot -36.8127 -27.0406
rtoes 7.48469
lfemur -23.1338 6.71604 -20.5574
ltibia 26.8392
lfoot -12.291 -9.30219
ltoes -0.215515
4479
root -4.14552 16.5948 -6.12607 543.153 -76.8303 -532.136
lowerback 5.97928 0.974746 -2.07352
upperback 0.87838 0.927692 -4.44318
thorax -2.40935 0.414857 -3.49917
lowerneck 13.5656 -3.33126 -3.14554
upperneck -31.9981 -5.41837 4.71392
head -12.6356 -3.08332 3.24296
rclavicle 1.19271e-014 -2.70347e-014
rhumerus -84.1631 29.0921 -113.873
rradius 78.4258
rwrist 18.2391
rhand -44.5311 24.3593
rfingers 7.12502
rthumb -17.3324 -4.88785
lclavicle 1.19271e-014 -2.70347e-014
lhumerus -83.6044 -49.0472 101.96
lradius 104.108
lwrist 12.4281
lhand -10.3851 -14.498
lfingers 7.12502
lthumb 15.6128 14.8919
rfemur -7.96431 -8.30615 17.5444
rtibia 24.9158
rfoot -36.8012 -27.0362
rtoes 7.54922
lfemur -23.4866 6.45553 -20.4118
ltibia 26.8973
lfoot -12.2596 -9.32064
ltoes -0.111762
4480
root -4.13959 16.5982 -6.12968 542.589 -77.1729 -531.327
lowerback 6.08663 0.91385 -1.98446
upperback 0.873745 0.849731 -4.41285
thorax -2.47677 0.376051 -3.51393
lowerneck 13.5943 -3.42483 -3.17
upperneck -32.0945 -5.53144 4.84286
head -12.6692 -3.14959 3.31839
rclavicle 3.4191e-014 -3.97569e-014
rhumerus -84.0485 29.0405 -113.418
rradius 78.3395
rwrist 17.9453
rhand -43.9034 24.1135
rfingers 7.12502
rthumb -16.7282 -5.18579
lclavicle 3.4191e-014 -3.97569e-014
lhumerus -82.4919 -49.1575 100.834
lradius 104.361
lwrist 12.9559
lhand -8.89639 -13.4147
lfingers 7.12502
lthumb 17.0462 15.8574
rfemur -8.10782 -8.61222 17.7862
rtibia 24.7779
rfoot -36.7679 -27.0371
rtoes 7.58864
lfemur -23.8302 6.2457 -20.2529
ltibia 26.9456
lfoot -12.2226 -9.40038
ltoes 0.0321121
4481
root -4.13405 16.6015 -6.13301 541.937 -77.4868 -530.435
lowerback 6.19143 0.85637 -1.88328
upperback 0.873548 0.7779 -4.37959
thorax -2.5379 0.340219 -3.53265
lowerneck 13.6234 -3.51056 -3.18731
upperneck -32.2053 -5.63443 4.96618
head -12.7099 -3.21172 3.39018
rclavicle 4.77083e-015 7.95139e-014
rhumerus -83.9013 29.0081 -112.953
rradius 78.2121
rwrist 17.663
rhand -43.3437 23.9655
rfingers 7.12502
rthumb -16.1894 -5.37845
lclavicle 4.77083e-015 7.95139e-014
lhumerus -81.2963 -49.2488 99.6576
lradius 104.588
lwrist 13.6094
lhand -7.44099 -12.319
lfingers 7.12502
lthumb 18.4466 16.8264
rfemur -8.25845 -8.91444 18.0371
rtibia 24.6501
rfoot -36.7071 -27.0471
rtoes 7.59353
lfemur -24.1626 6.09055 -20.0814
ltibia 26.9861
lfoot -12.1849 -9.53297
ltoes 0.202549
4482
root -4.1285 16.6047 -6.13656 541.199 -77.7532 -529.463
lowerback 6.29726 0.807309 -1.78005
upperback 0.877215 0.71792 -4.34295
thorax -2.59521 0.310261 -3.54975
lowerneck 13.6475 -3.59095 -3.19025
upperneck -32.3259 -5.73142 5.07574
head -12.755 -3.27137 3.45413
rclavicle -7.55382e-015 -7.95139e-014
rhumerus -83.7255 28.9995 -112.488
rradius 78.0419
rwrist 17.4124
rhand -42.9202 23.8864
rfingers 7.12502
rthumb -15.7815 -5.49023
lclavicle -7.55382e-015 -7.95139e-014
lhumerus -80.0207 -49.3123 98.4353
lradius 104.78
lwrist 14.3794
lhand -6.06098 -11.2309
lfingers 7.12502
lthumb 19.7737 17.7832
rfemur -8.41902 -9.17663 18.3015
rtibia 24.5349
rfoot -36.64 -27.0651
rtoes 7.59252
lfemur -24.4818 5.98478 -19.8928
ltibia 27.0197
lfoot -12.1507 -9.68944
ltoes 0.36879
4483
root -4.12277 16.6077 -6.13996 540.476 -77.9832 -528.519
lowerback 6.41761 0.763725 -1.69007
upperback 0.88166 0.663431 -4.31062
thorax -2.65982 0.282905 -3.56446
lowerneck 13.6638 -3.66196 -3.18744
upperneck -32.4441 -5.81572 5.17675
head -12.7987 -3.32507 3.5119
rclavicle -1.70955e-014 1.43125e-014
rhumerus -83.527 29.0074 -112.026
rradius 77.8353
rwrist 17.2024
rhand -42.6027 23.8402
rfingers 7.12502
rthumb -15.4757 -5.56034
lclavicle -1.70955e-014 1.43125e-014
lhumerus -78.6828 -49.3413 97.1828
lradius 104.934
lwrist 15.2631
lhand -4.77905 -10.1467
lfingers 7.12502
lthumb 21.0057 18.7358
rfemur -8.58242 -9.42407 18.5504
rtibia 24.4352
rfoot -36.5535 -27.0791
rtoes 7.56786
lfemur -24.7824 5.90742 -19.7127
ltibia 27.0478
lfoot -12.1193 -9.85762
ltoes 0.538406
4484
root -4.11646 16.6107 -6.14322 539.787 -78.1757 -527.618
lowerback 6.55675 0.724929 -1.61638
upperback 0.880308 0.612901 -4.28249
thorax -2.74099 0.257403 -3.57495
lowerneck 13.677 -3.72179 -3.18088
upperneck -32.5525 -5.88386 5.2704
head -12.839 -3.37096 3.56348
rclavicle -2.34566e-014 3.18055e-014
rhumerus -83.3119 29.028 -111.571
rradius 77.5984
rwrist 17.0163
rhand -42.3365 23.7799
rfingers 7.12502
rthumb -15.2193 -5.64027
lclavicle -2.34566e-014 3.18055e-014
lhumerus -77.3029 -49.3263 95.9145
lradius 105.05
lwrist 16.2513
lhand -3.60625 -9.07416
lfingers 7.12502
lthumb 22.132 19.6791
rfemur -8.75621 -9.64323 18.7858
rtibia 24.3533
rfoot -36.4555 -27.0957
rtoes 7.51703
lfemur -25.07 5.83939 -19.5406
ltibia 27.0704
lfoot -12.0944 -10.0078
ltoes 0.685696
4485
root -4.10969 16.6133 -6.14621 539.111 -78.3383 -526.744
lowerback 6.72164 0.688751 -1.55175
upperback 0.873701 0.563749 -4.25802
thorax -2.84207 0.232407 -3.58464
lowerneck 13.6748 -3.77289 -3.17101
upperneck -32.6401 -5.93815 5.3581
head -12.8685 -3.41034 3.60853
rclavicle -3.29983e-014 -7.95139e-015
rhumerus -83.0802 29.0512 -111.118
rradius 77.3366
rwrist 16.8433
rhand -42.0894 23.6666
rfingers 7.12502
rthumb -14.9813 -5.77148
lclavicle -3.29983e-014 -7.95139e-015
lhumerus -75.8933 -49.2645 94.6426
lradius 105.125
lwrist 17.3163
lhand -2.54553 -8.0273
lfingers 7.12502
lthumb 23.1501 20.6017
rfemur -8.93256 -9.84519 19.01
rtibia 24.2891
rfoot -36.3477 -27.0999
rtoes 7.45857
lfemur -25.3393 5.76108 -19.371
ltibia 27.0875
lfoot -12.076 -10.1213
ltoes 0.798415
4486
root -4.10207 16.616 -6.14875 538.466 -78.4892 -525.9
lowerback 6.9061 0.650095 -1.495
upperback 0.858685 0.509602 -4.23628
thorax -2.96319 0.204781 -3.59253
lowerneck 13.6665 -3.81771 -3.15823
upperneck -32.7193 -5.98264 5.44266
head -12.8939 -3.44535 3.64988
rclavicle 7.95139e-015 6.36111e-014
rhumerus -82.8285 29.0732 -110.661
rradius 77.0586
rwrist 16.6598
rhand -41.8178 23.468
rfingers 7.12502
rthumb -14.7197 -5.98945
lclavicle 7.95139e-015 6.36111e-014
lhumerus -74.4621 -49.1521 93.3739
lradius 105.161
lwrist 18.4371
lhand -1.56554 -7.00564
lfingers 7.12502
lthumb 24.09 21.5021
rfemur -9.11929 -10.0377 19.2242
rtibia 24.2351
rfoot -36.2366 -27.0972
rtoes 7.39968
lfemur -25.6076 5.64079 -19.2057
ltibia 27.1014
lfoot -12.0617 -10.1773
ltoes 0.872863
4487
root -4.09401 16.6188 -6.15068 537.879 -78.6399 -525.113
lowerback 7.10062 0.605064 -1.45025
upperback 0.839726 0.445474 -4.21737
thorax -3.09471 0.172125 -3.5956
lowerneck 13.6524 -3.85446 -3.14381
upperneck -32.7975 -6.01615 5.52312
head -12.9187 -3.47529 3.68769
rclavicle -1.43125e-014 1.27222e-014
rhumerus -82.5507 29.0919 -110.188
rradius 76.7755
rwrist 16.4195
rhand -41.4724 23.1761
rfingers 7.12502
rthumb -14.3868 -6.30529
lclavicle -1.43125e-014 1.27222e-014
lhumerus -73.0025 -48.9813 92.1009
lradius 105.165
lwrist 19.5785
lhand -0.613853 -5.98301
lfingers 7.12502
lthumb 25.0023 22.4009
rfemur -9.31082 -10.235 19.4204
rtibia 24.1831
rfoot -36.1173 -27.0843
rtoes 7.34298
lfemur -25.8771 5.46037 -19.0509
ltibia 27.115
lfoot -12.0553 -10.1641
ltoes 0.908156
4488
root -4.08645 16.6216 -6.15182 537.282 -78.8077 -524.321
lowerback 7.29543 0.548726 -1.39912
upperback 0.825497 0.367222 -4.19857
thorax -3.22225 0.132344 -3.60061
lowerneck 13.6315 -3.89065 -3.11806
upperneck -32.8834 -6.05066 5.59229
head -12.9462 -3.50589 3.71971
rclavicle 1.19271e-014 -6.67916e-014
rhumerus -82.2316 29.103 -109.685
rradius 76.4895
rwrist 16.1156
rhand -41.0124 22.7751
rfingers 7.12502
rthumb -13.9435 -6.73736
lclavicle 1.19271e-014 -6.67916e-014
lhumerus -71.5104 -48.7562 90.8209
lradius 105.135
lwrist 20.6845
lhand 0.324757 -4.97452
lfingers 7.12502
lthumb 25.9014 23.2812
rfemur -9.4898 -10.4717 19.6042
rtibia 24.1264
rfoot -35.9749 -27.0526
rtoes 7.26963
lfemur -26.1393 5.21752 -18.8989
ltibia 27.129
lfoot -12.0606 -10.0934
ltoes 0.903238
4489
root -4.07957 16.6245 -6.15216 536.679 -78.9858 -523.526
lowerback 7.48856 0.483256 -1.34464
upperback 0.817201 0.277698 -4.1788
thorax -3.34338 0.0869208 -3.60483
lowerneck 13.6094 -3.92262 -3.0881
upperneck -32.9834 -6.08041 5.6588
head -12.98 -3.5349 3.75037
rclavicle 4.37326e-014 1.43125e-014
rhumerus -81.8666 29.1079 -109.144
rradius 76.204
rwrist 15.7364
rhand -40.4055 22.2687
rfingers 7.12502
rthumb -13.3586 -7.28305
lclavicle 4.37326e-014 1.43125e-014
lhumerus -69.9832 -48.4695 89.5297
lradius 105.075
lwrist 21.7037
lhand 1.28872 -3.94233
lfingers 7.12502
lthumb 26.8242 24.1752
rfemur -9.65348 -10.7394 19.7758
rtibia 24.0595
rfoot -35.8112 -27.0045
rtoes 7.18887
lfemur -26.3931 4.92359 -18.7496
ltibia 27.1444
lfoot -12.0763 -9.96819
ltoes 0.870739
